<svg viewBox="0 0 543.01 81.3" xmlns="http://www.w3.org/2000/svg"><path d="M0 81.3V0H30.19C44.64 0 54.34 5.61 54.34 21.13c0 7.34-2.37 13.27-9 16.61V38C57 39.46 62 47.33 62 58.66c0 17-14.56 22.64-29.44 22.64ZM21.13 31.92h2.38c5.6 0 11.42-1 11.42-7.88 0-7.44-6.57-7.87-12.29-7.87H21.13Zm0 33.2h2.7c6.25 0 16.82.33 16.82-8.62 0-9.81-10.46-8.84-17.36-8.84H21.13ZM87.77 0h25.34l15.2 22.1L143.52 0h25.33l-30 42.27v39H117.75v-39ZM275.82 81.3H249.51L229.56 50h-.21V81.3H208.21V0H239.8c16.07 0 28.25 7.66 28.25 25 0 11.22-6.25 20.92-17.79 23ZM229.35 36.45h2c6.91 0 14.67-1.3 14.67-10.14s-7.76-10.14-14.67-10.14h-2ZM316 0h30c22.65 0 41.3 17.79 41.3 40.65S368.55 81.3 346 81.3H316Zm21.13 63.4h4.75c12.61 0 23.39-6.9 23.39-22.75 0-14.56-9.59-22.75-23.18-22.75h-5ZM450.61 81.3H429.47V0h21.14ZM517.89 17.9V31.48h23.83v17.9H517.89v14H543V81.3H496.76V0H543V17.9Z"></path></svg>